<?xml version="1.0" standalone="no"?>
<svg xmlns:xlink="http://www.w3.org/1999/xlink" id="wave" style="transform:rotate(0deg); transition: 0.3s" viewBox="0 0 1440 170" version="1.1" xmlns="http://www.w3.org/2000/svg"><defs><linearGradient id="sw-gradient-0" x1="0" x2="0" y1="1" y2="0"><stop stop-color="rgba(52, 61, 104, 1)" offset="0%"/><stop stop-color="rgba(52, 61, 104, 1)" offset="100%"/></linearGradient></defs><path style="transform:translate(0, 0px); opacity:1" fill="url(#sw-gradient-0)" d="M0,119L48,104.8C96,91,192,62,288,56.7C384,51,480,68,576,82.2C672,96,768,108,864,104.8C960,102,1056,85,1152,70.8C1248,57,1344,45,1440,36.8C1536,28,1632,23,1728,39.7C1824,57,1920,96,2016,119C2112,142,2208,147,2304,150.2C2400,153,2496,153,2592,141.7C2688,130,2784,108,2880,104.8C2976,102,3072,119,3168,113.3C3264,108,3360,79,3456,65.2C3552,51,3648,51,3744,62.3C3840,74,3936,96,4032,110.5C4128,125,4224,130,4320,113.3C4416,96,4512,57,4608,34C4704,11,4800,6,4896,11.3C4992,17,5088,34,5184,59.5C5280,85,5376,119,5472,116.2C5568,113,5664,74,5760,59.5C5856,45,5952,57,6048,53.8C6144,51,6240,34,6336,34C6432,34,6528,51,6624,65.2C6720,79,6816,91,6864,96.3L6912,102L6912,170L6864,170C6816,170,6720,170,6624,170C6528,170,6432,170,6336,170C6240,170,6144,170,6048,170C5952,170,5856,170,5760,170C5664,170,5568,170,5472,170C5376,170,5280,170,5184,170C5088,170,4992,170,4896,170C4800,170,4704,170,4608,170C4512,170,4416,170,4320,170C4224,170,4128,170,4032,170C3936,170,3840,170,3744,170C3648,170,3552,170,3456,170C3360,170,3264,170,3168,170C3072,170,2976,170,2880,170C2784,170,2688,170,2592,170C2496,170,2400,170,2304,170C2208,170,2112,170,2016,170C1920,170,1824,170,1728,170C1632,170,1536,170,1440,170C1344,170,1248,170,1152,170C1056,170,960,170,864,170C768,170,672,170,576,170C480,170,384,170,288,170C192,170,96,170,48,170L0,170Z"/></svg>