<?xml version="1.0" standalone="no"?>
<svg xmlns:xlink="http://www.w3.org/1999/xlink" id="wave" style="transform:rotate(180deg); transition: 0.3s" viewBox="0 0 1440 100" version="1.1" xmlns="http://www.w3.org/2000/svg"><defs><linearGradient id="sw-gradient-0" x1="0" x2="0" y1="1" y2="0"><stop stop-color="rgba(52, 61, 104, 1)" offset="0%"/><stop stop-color="rgba(52, 61, 104, 1)" offset="100%"/></linearGradient></defs><path style="transform:translate(0, 0px); opacity:1" fill="url(#sw-gradient-0)" d="M0,90L40,88.3C80,87,160,83,240,75C320,67,400,53,480,51.7C560,50,640,60,720,68.3C800,77,880,83,960,73.3C1040,63,1120,37,1200,25C1280,13,1360,17,1440,21.7C1520,27,1600,33,1680,41.7C1760,50,1840,60,1920,58.3C2000,57,2080,43,2160,38.3C2240,33,2320,37,2400,36.7C2480,37,2560,33,2640,28.3C2720,23,2800,17,2880,20C2960,23,3040,37,3120,36.7C3200,37,3280,23,3360,25C3440,27,3520,43,3600,53.3C3680,63,3760,67,3840,63.3C3920,60,4000,50,4080,50C4160,50,4240,60,4320,68.3C4400,77,4480,83,4560,71.7C4640,60,4720,30,4800,16.7C4880,3,4960,7,5040,21.7C5120,37,5200,63,5280,61.7C5360,60,5440,30,5520,26.7C5600,23,5680,47,5720,58.3L5760,70L5760,100L5720,100C5680,100,5600,100,5520,100C5440,100,5360,100,5280,100C5200,100,5120,100,5040,100C4960,100,4880,100,4800,100C4720,100,4640,100,4560,100C4480,100,4400,100,4320,100C4240,100,4160,100,4080,100C4000,100,3920,100,3840,100C3760,100,3680,100,3600,100C3520,100,3440,100,3360,100C3280,100,3200,100,3120,100C3040,100,2960,100,2880,100C2800,100,2720,100,2640,100C2560,100,2480,100,2400,100C2320,100,2240,100,2160,100C2080,100,2000,100,1920,100C1840,100,1760,100,1680,100C1600,100,1520,100,1440,100C1360,100,1280,100,1200,100C1120,100,1040,100,960,100C880,100,800,100,720,100C640,100,560,100,480,100C400,100,320,100,240,100C160,100,80,100,40,100L0,100Z"/></svg>