<?xml version="1.0" standalone="no"?>
<svg xmlns:xlink="http://www.w3.org/1999/xlink" id="wave" style="transform:rotate(180deg); transition: 0.3s" viewBox="0 0 1440 240" version="1.1" xmlns="http://www.w3.org/2000/svg"><defs><linearGradient id="sw-gradient-0" x1="0" x2="0" y1="1" y2="0"><stop stop-color="rgba(50, 128, 246, 1)" offset="0%"/><stop stop-color="rgba(89, 67, 236, 1)" offset="100%"/></linearGradient></defs><path style="transform:translate(0, 0px); opacity:1" fill="url(#sw-gradient-0)" d="M0,72L13.3,88C26.7,104,53,136,80,148C106.7,160,133,152,160,144C186.7,136,213,128,240,124C266.7,120,293,120,320,124C346.7,128,373,136,400,128C426.7,120,453,96,480,76C506.7,56,533,40,560,52C586.7,64,613,104,640,124C666.7,144,693,144,720,136C746.7,128,773,112,800,116C826.7,120,853,144,880,160C906.7,176,933,184,960,176C986.7,168,1013,144,1040,148C1066.7,152,1093,184,1120,172C1146.7,160,1173,104,1200,100C1226.7,96,1253,144,1280,152C1306.7,160,1333,128,1360,128C1386.7,128,1413,160,1440,164C1466.7,168,1493,144,1520,116C1546.7,88,1573,56,1600,64C1626.7,72,1653,120,1680,116C1706.7,112,1733,56,1760,36C1786.7,16,1813,32,1840,32C1866.7,32,1893,16,1907,8L1920,0L1920,240L1906.7,240C1893.3,240,1867,240,1840,240C1813.3,240,1787,240,1760,240C1733.3,240,1707,240,1680,240C1653.3,240,1627,240,1600,240C1573.3,240,1547,240,1520,240C1493.3,240,1467,240,1440,240C1413.3,240,1387,240,1360,240C1333.3,240,1307,240,1280,240C1253.3,240,1227,240,1200,240C1173.3,240,1147,240,1120,240C1093.3,240,1067,240,1040,240C1013.3,240,987,240,960,240C933.3,240,907,240,880,240C853.3,240,827,240,800,240C773.3,240,747,240,720,240C693.3,240,667,240,640,240C613.3,240,587,240,560,240C533.3,240,507,240,480,240C453.3,240,427,240,400,240C373.3,240,347,240,320,240C293.3,240,267,240,240,240C213.3,240,187,240,160,240C133.3,240,107,240,80,240C53.3,240,27,240,13,240L0,240Z"/></svg>