<?xml version="1.0" standalone="no"?>
<svg xmlns:xlink="http://www.w3.org/1999/xlink" id="wave" style="transform:rotate(0deg); transition: 0.3s" viewBox="0 0 1440 170" version="1.1" xmlns="http://www.w3.org/2000/svg"><defs><linearGradient id="sw-gradient-0" x1="0" x2="0" y1="1" y2="0"><stop stop-color="rgba(52, 61, 104, 1)" offset="0%"/><stop stop-color="rgba(52, 61, 104, 1)" offset="100%"/></linearGradient></defs><path style="transform:translate(0, 0px); opacity:1" fill="url(#sw-gradient-0)" d="M0,34L26.7,28.3C53.3,23,107,11,160,11.3C213.3,11,267,23,320,25.5C373.3,28,427,23,480,31.2C533.3,40,587,62,640,68C693.3,74,747,62,800,51C853.3,40,907,28,960,19.8C1013.3,11,1067,6,1120,17C1173.3,28,1227,57,1280,68C1333.3,79,1387,74,1440,59.5C1493.3,45,1547,23,1600,14.2C1653.3,6,1707,11,1760,14.2C1813.3,17,1867,17,1920,14.2C1973.3,11,2027,6,2080,8.5C2133.3,11,2187,23,2240,28.3C2293.3,34,2347,34,2400,39.7C2453.3,45,2507,57,2560,53.8C2613.3,51,2667,34,2720,45.3C2773.3,57,2827,96,2880,102C2933.3,108,2987,79,3040,82.2C3093.3,85,3147,119,3200,119C3253.3,119,3307,85,3360,62.3C3413.3,40,3467,28,3520,22.7C3573.3,17,3627,17,3680,28.3C3733.3,40,3787,62,3813,73.7L3840,85L3840,170L3813.3,170C3786.7,170,3733,170,3680,170C3626.7,170,3573,170,3520,170C3466.7,170,3413,170,3360,170C3306.7,170,3253,170,3200,170C3146.7,170,3093,170,3040,170C2986.7,170,2933,170,2880,170C2826.7,170,2773,170,2720,170C2666.7,170,2613,170,2560,170C2506.7,170,2453,170,2400,170C2346.7,170,2293,170,2240,170C2186.7,170,2133,170,2080,170C2026.7,170,1973,170,1920,170C1866.7,170,1813,170,1760,170C1706.7,170,1653,170,1600,170C1546.7,170,1493,170,1440,170C1386.7,170,1333,170,1280,170C1226.7,170,1173,170,1120,170C1066.7,170,1013,170,960,170C906.7,170,853,170,800,170C746.7,170,693,170,640,170C586.7,170,533,170,480,170C426.7,170,373,170,320,170C266.7,170,213,170,160,170C106.7,170,53,170,27,170L0,170Z"/></svg>