<?xml version="1.0" standalone="no"?>
<svg xmlns:xlink="http://www.w3.org/1999/xlink" id="wave" style="transform:rotate(180deg); transition: 0.3s" viewBox="0 0 1440 100" version="1.1" xmlns="http://www.w3.org/2000/svg"><defs><linearGradient id="sw-gradient-0" x1="0" x2="0" y1="1" y2="0"><stop stop-color="rgba(52, 61, 104, 1)" offset="0%"/><stop stop-color="rgba(52, 61, 104, 1)" offset="100%"/></linearGradient></defs><path style="transform:translate(0, 0px); opacity:1" fill="url(#sw-gradient-0)" d="M0,20L40,26.7C80,33,160,47,240,48.3C320,50,400,40,480,30C560,20,640,10,720,5C800,0,880,0,960,13.3C1040,27,1120,53,1200,65C1280,77,1360,73,1440,75C1520,77,1600,83,1680,73.3C1760,63,1840,37,1920,35C2000,33,2080,57,2160,58.3C2240,60,2320,40,2400,26.7C2480,13,2560,7,2640,3.3C2720,0,2800,0,2880,13.3C2960,27,3040,53,3120,53.3C3200,53,3280,27,3360,13.3C3440,0,3520,0,3600,6.7C3680,13,3760,27,3840,40C3920,53,4000,67,4080,68.3C4160,70,4240,60,4320,50C4400,40,4480,30,4560,33.3C4640,37,4720,53,4800,58.3C4880,63,4960,57,5040,45C5120,33,5200,17,5280,23.3C5360,30,5440,60,5520,70C5600,80,5680,70,5720,65L5760,60L5760,100L5720,100C5680,100,5600,100,5520,100C5440,100,5360,100,5280,100C5200,100,5120,100,5040,100C4960,100,4880,100,4800,100C4720,100,4640,100,4560,100C4480,100,4400,100,4320,100C4240,100,4160,100,4080,100C4000,100,3920,100,3840,100C3760,100,3680,100,3600,100C3520,100,3440,100,3360,100C3280,100,3200,100,3120,100C3040,100,2960,100,2880,100C2800,100,2720,100,2640,100C2560,100,2480,100,2400,100C2320,100,2240,100,2160,100C2080,100,2000,100,1920,100C1840,100,1760,100,1680,100C1600,100,1520,100,1440,100C1360,100,1280,100,1200,100C1120,100,1040,100,960,100C880,100,800,100,720,100C640,100,560,100,480,100C400,100,320,100,240,100C160,100,80,100,40,100L0,100Z"/></svg>