<?xml version="1.0" standalone="no"?>
<svg xmlns:xlink="http://www.w3.org/1999/xlink" id="wave" style="transform:rotate(180deg); transition: 0.3s" viewBox="0 0 1440 100" version="1.1" xmlns="http://www.w3.org/2000/svg"><defs><linearGradient id="sw-gradient-0" x1="0" x2="0" y1="1" y2="0"><stop stop-color="rgba(52, 61, 104, 1)" offset="0%"/><stop stop-color="rgba(52, 61, 104, 1)" offset="100%"/></linearGradient></defs><path style="transform:translate(0, 0px); opacity:1" fill="url(#sw-gradient-0)" d="M0,80L40,80C80,80,160,80,240,68.3C320,57,400,33,480,21.7C560,10,640,10,720,11.7C800,13,880,17,960,30C1040,43,1120,67,1200,70C1280,73,1360,57,1440,46.7C1520,37,1600,33,1680,41.7C1760,50,1840,70,1920,71.7C2000,73,2080,57,2160,53.3C2240,50,2320,60,2400,61.7C2480,63,2560,57,2640,58.3C2720,60,2800,70,2880,65C2960,60,3040,40,3120,31.7C3200,23,3280,27,3360,31.7C3440,37,3520,43,3600,50C3680,57,3760,63,3840,65C3920,67,4000,63,4080,61.7C4160,60,4240,60,4320,53.3C4400,47,4480,33,4560,25C4640,17,4720,13,4800,21.7C4880,30,4960,50,5040,60C5120,70,5200,70,5280,65C5360,60,5440,50,5520,53.3C5600,57,5680,73,5720,81.7L5760,90L5760,100L5720,100C5680,100,5600,100,5520,100C5440,100,5360,100,5280,100C5200,100,5120,100,5040,100C4960,100,4880,100,4800,100C4720,100,4640,100,4560,100C4480,100,4400,100,4320,100C4240,100,4160,100,4080,100C4000,100,3920,100,3840,100C3760,100,3680,100,3600,100C3520,100,3440,100,3360,100C3280,100,3200,100,3120,100C3040,100,2960,100,2880,100C2800,100,2720,100,2640,100C2560,100,2480,100,2400,100C2320,100,2240,100,2160,100C2080,100,2000,100,1920,100C1840,100,1760,100,1680,100C1600,100,1520,100,1440,100C1360,100,1280,100,1200,100C1120,100,1040,100,960,100C880,100,800,100,720,100C640,100,560,100,480,100C400,100,320,100,240,100C160,100,80,100,40,100L0,100Z"/></svg>