<?xml version="1.0" standalone="no"?>
<svg xmlns:xlink="http://www.w3.org/1999/xlink" id="wave" style="transform:rotate(0deg); transition: 0.3s" viewBox="0 0 1440 170" version="1.1" xmlns="http://www.w3.org/2000/svg"><defs><linearGradient id="sw-gradient-0" x1="0" x2="0" y1="1" y2="0"><stop stop-color="rgba(52, 61, 104, 1)" offset="0%"/><stop stop-color="rgba(52, 61, 104, 1)" offset="100%"/></linearGradient></defs><path style="transform:translate(0, 0px); opacity:1" fill="url(#sw-gradient-0)" d="M0,136L21.8,119C43.6,102,87,68,131,51C174.5,34,218,34,262,51C305.5,68,349,102,393,104.8C436.4,108,480,79,524,76.5C567.3,74,611,96,655,93.5C698.2,91,742,62,785,59.5C829.1,57,873,79,916,99.2C960,119,1004,136,1047,138.8C1090.9,142,1135,130,1178,113.3C1221.8,96,1265,74,1309,56.7C1352.7,40,1396,28,1440,34C1483.6,40,1527,62,1571,73.7C1614.5,85,1658,85,1702,96.3C1745.5,108,1789,130,1833,141.7C1876.4,153,1920,153,1964,130.3C2007.3,108,2051,62,2095,59.5C2138.2,57,2182,96,2225,113.3C2269.1,130,2313,125,2356,119C2400,113,2444,108,2487,107.7C2530.9,108,2575,113,2618,119C2661.8,125,2705,130,2749,127.5C2792.7,125,2836,113,2880,102C2923.6,91,2967,79,3011,82.2C3054.5,85,3098,102,3120,110.5L3141.8,119L3141.8,170L3120,170C3098.2,170,3055,170,3011,170C2967.3,170,2924,170,2880,170C2836.4,170,2793,170,2749,170C2705.5,170,2662,170,2618,170C2574.5,170,2531,170,2487,170C2443.6,170,2400,170,2356,170C2312.7,170,2269,170,2225,170C2181.8,170,2138,170,2095,170C2050.9,170,2007,170,1964,170C1920,170,1876,170,1833,170C1789.1,170,1745,170,1702,170C1658.2,170,1615,170,1571,170C1527.3,170,1484,170,1440,170C1396.4,170,1353,170,1309,170C1265.5,170,1222,170,1178,170C1134.5,170,1091,170,1047,170C1003.6,170,960,170,916,170C872.7,170,829,170,785,170C741.8,170,698,170,655,170C610.9,170,567,170,524,170C480,170,436,170,393,170C349.1,170,305,170,262,170C218.2,170,175,170,131,170C87.3,170,44,170,22,170L0,170Z"/></svg>